<svg width="490" height="490" xmlns="http://www.w3.org/2000/svg">
 <g>
  <title>background</title>
  <rect x="-1" y="-1" width="492" height="492" id="canvas_background" fill="none"/>
 </g>

 <g>
  <title>Layer 1</title>
  <g id="svg_1">
   <path d="m245,208.977c36.565,0 66.207,-29.642 66.207,-66.207s-29.642,-66.207 -66.207,-66.207s-66.208,29.642 -66.208,66.207s29.643,66.207 66.208,66.207zm0,-117.102c28.063,0 50.895,22.831 50.895,50.895c0,28.063 -22.831,50.895 -50.895,50.895c-28.064,0 -50.896,-22.831 -50.896,-50.895c0,-28.064 22.832,-50.895 50.896,-50.895z" id="svg_2" stroke="#ff9900" stroke-width="0" fill="#ff9d00"/>
   <path d="m110.796,286.815c0,61.734 0,76.049 0,76.049s130.622,0 131.072,0l-63.971,-138.678c0.001,0 -67.101,0.896 -67.101,62.629zm15.312,60.737l0,-60.737c0,-34.228 27.182,-43.702 42.448,-46.323l49.385,107.06l-91.833,0z" id="svg_3" stroke="#ff9900" stroke-width="0" fill="#ff9d00"/>
   <path d="m312.102,224.186l-63.971,138.678l131.073,0c0,0 0,-14.315 0,-76.049c0,-61.733 -67.102,-62.629 -67.102,-62.629zm51.79,123.366l-91.834,0l49.422,-107.137c15.242,2.507 42.412,11.825 42.412,46.4l0,60.737z" id="svg_4" stroke="#ff9900" stroke-width="0" fill="#ff9d00"/>
   <polygon points="244.999,224.186 198.922,224.186 244.999,326.181 291.076,224.186  " id="svg_5" stroke="#ff9900" stroke-width="0" fill="#ff9d00"/>
   <path d="m246,0c-135.311,0 -245,109.69 -245,245s109.689,245 245,245c135.31,0 245,-109.69 245,-245s-109.69,-245 -245,-245zm0,474.688c-126.651,0 -229.687,-103.038 -229.687,-229.688c0,-126.651 103.036,-229.687 229.687,-229.687c126.65,0 229.688,103.037 229.688,229.688c0,126.649 -103.038,229.687 -229.688,229.687z" id="svg_6" stroke="#ffffff" stroke-width="0" fill="#ff9d00"/>
  </g>
  <g id="svg_7"/>
  <g id="svg_8"/>
  <g id="svg_9"/>
  <g id="svg_10"/>
  <g id="svg_11"/>
  <g id="svg_12"/>
  <g id="svg_13"/>
  <g id="svg_14"/>
  <g id="svg_15"/>
  <g id="svg_16"/>
  <g id="svg_17"/>
  <g id="svg_18"/>
  <g id="svg_19"/>
  <g id="svg_20"/>
  <g id="svg_21"/>
 </g>
</svg>