<svg width="470" height="470" xmlns="http://www.w3.org/2000/svg">

 <g>
  <title>background</title>
  <rect fill="none" id="canvas_background" height="602" width="802" y="-1" x="-1"/>
 </g>
 <g>
  <title>Layer 1</title>
  <g fill-opacity="0" id="svg_1">
   <path stroke="#ff9d00" stroke-width="7" fill="#ffffff" id="svg_2" d="m427.58806,412.91569l-62.54182,-145.74343c-1.59312,-3.71203 -6.0026,-5.47685 -9.84921,-3.93809s-5.67392,5.79508 -4.0798,9.50712l56.53922,131.75587l-51.5719,-14.42415c-3.38526,-0.9479 -7.00069,0.49772 -8.70035,3.47918l-25.90104,45.39917l-60.66626,-141.37553c70.01994,-13.03384 123.0744,-72.62334 123.0744,-143.95824c0.00101,-80.84492 -68.13735,-146.61759 -151.8913,-146.61759s-151.89331,65.77267 -151.89331,146.61759c0,32.74565 11.181,63.01629 30.04918,87.44819l-73.74393,171.84992c-1.10865,2.58465 -0.58498,5.5535 1.34787,7.63752c1.93185,2.08402 4.93214,2.91452 7.71533,2.13641l60.84316,-17.0185l30.55576,53.56254c1.33078,2.33142 3.86671,3.76637 6.60165,3.76637c0.13871,0 0.27842,-0.00388 0.41813,-0.01067c2.89375,-0.15523 5.43873,-1.89677 6.54838,-4.48141l58.43388,-136.17228c1.59312,-3.713 -0.23319,-7.96933 -4.0798,-9.50712c-3.84661,-1.53779 -8.25609,0.22509 -9.84921,3.93809l-52.43229,122.18472l-25.89903,-45.39917c-1.70067,-2.98146 -5.31811,-4.42708 -8.70136,-3.47918l-51.57089,14.42415l64.72696,-150.83802c27.73941,28.64068 67.20258,46.57507 110.92949,46.57507c4.51401,0 8.97877,-0.20277 13.39328,-0.57631l68.16549,158.85003c1.10865,2.58465 3.65463,4.32618 6.54738,4.48044c0.14072,0.00776 0.27942,0.01164 0.41914,0.01164c2.73494,0 5.27087,-1.43494 6.60065,-3.76637l30.55677,-53.56254l60.84316,17.0185c2.7852,0.77908 5.78248,-0.05239 7.71533,-2.13641c1.93285,-2.08402 2.45552,-5.05287 1.34687,-7.63752zm-332.40451,-259.29811c0,-72.82029 61.37588,-132.0644 136.81645,-132.0644c75.44058,0 136.81545,59.24411 136.81545,132.0644s-61.37487,132.06343 -136.81545,132.06343c-75.44058,0 -136.81645,-59.24314 -136.81645,-132.06343z"/>
   <path stroke="#ff9d00" stroke-width="7" fill="#ff9d00" id="svg_3" d="m317.66956,126.17428c-0.83821,-2.49814 -3.04494,-4.33838 -5.72274,-4.77353l-49.01724,-7.95964l-22.96964,-42.64973c-1.25488,-2.3299 -3.74426,-3.79138 -6.45994,-3.79138c-2.71471,0 -5.20505,1.46148 -6.45994,3.79138l-22.97061,42.64973l-49.01627,7.95964c-2.6778,0.43421 -4.88356,2.27445 -5.72274,4.77353c-0.83918,2.49908 -0.17289,5.24158 1.72984,7.11659l34.82014,34.31885l-7.3234,47.56988c-0.40016,2.5987 0.72651,5.19646 2.92353,6.74159c2.19508,1.54324 5.09821,1.77727 7.52834,0.60715l44.49111,-21.44l44.49014,21.44c1.02858,0.4953 2.13971,0.73967 3.24697,0.73967c1.51227,0 3.01483,-0.45489 4.28234,-1.34587c2.19702,-1.54512 3.3237,-4.14289 2.92353,-6.74159l-7.32243,-47.56988l34.82014,-34.31979c1.90175,-1.87501 2.56805,-4.61751 1.72887,-7.11659zm-49.48734,34.06414c-1.60066,1.57802 -2.34368,3.79044 -2.00665,5.97655l5.7985,37.66379l-35.22613,-16.97474c-1.02372,-0.49248 -2.13486,-0.73967 -3.24794,-0.73967c-1.11211,0 -2.22519,0.24624 -3.24697,0.73967l-35.22613,16.97474l5.7985,-37.66379c0.33703,-2.18611 -0.40599,-4.39947 -2.00665,-5.97655l-27.56959,-27.17312l38.80916,-6.30268c2.25335,-0.3656 4.19881,-1.73309 5.25459,-3.69363l18.18709,-33.76809l18.18709,33.76903c1.05675,1.96054 3.00123,3.32803 5.25459,3.69363l38.81013,6.30268l-27.56959,27.17218z"/>
   <path stroke="#ff9d00" stroke-width="7" fill="#ff9d00" id="svg_4" d="m345.612,160.43414c-4.107,-0.53087 -7.877,2.26562 -8.42,6.23699c-6.957,50.77293 -52.18,89.06222 -105.192,89.06222c-58.514,0 -106.119,-46.03185 -106.119,-102.61437s47.605,-102.61437 106.119,-102.61437c53.013,0 98.235,38.28832 105.192,89.06222c0.543,3.97136 4.32,6.76979 8.42,6.23699c4.105,-0.52603 6.994,-4.17153 6.449,-8.14193c-7.94,-57.95658 -59.555,-101.6619 -120.061,-101.6619c-66.785,0 -121.119,52.53863 -121.119,117.11899s54.334,117.11802 121.119,117.11802c60.506,0 112.121,-43.70531 120.062,-101.6619c0.544,-3.96943 -2.344,-7.61492 -6.45,-8.14096z"/>
  </g>
 </g>
</svg>