<svg width="203.569" height="203.569" xmlns="http://www.w3.org/2000/svg">

 <g>
  <title>background</title>
  <rect fill="none" id="canvas_background" height="602" width="802" y="-1" x="-1"/>
 </g>
 <g>
  <title>Layer 1</title>
  <g id="svg_1">
   <path id="svg_2" fill="#ff8c00" d="m105.945,12.297l0,-4.602c0,-1.915 -1.553,-3.471 -3.468,-3.471c-1.915,0 -3.471,1.557 -3.471,3.471l0,4.574c-54.847,1.316 -99.006,41.442 -99.006,90.612l0,2.777l8.174,0l0.276,-2.469c1.267,-11.327 13.678,-20.203 28.255,-20.203c14.58,0 26.988,8.876 28.255,20.203l0.276,2.469l6.56,0l0.276,-2.469c1.22,-10.983 12.941,-19.637 26.942,-20.153l0,98.959c0,6.506 -5.293,11.796 -11.799,11.796c-6.499,0 -11.792,-5.29 -11.792,-11.796l-5.558,0c0,9.566 7.784,17.35 17.35,17.35s17.35,-7.784 17.35,-17.35l0,-98.73c12.676,1.521 22.876,9.713 24.007,19.923l0.272,2.469l6.564,0l0.272,-2.469c1.263,-11.327 13.671,-20.203 28.255,-20.203s26.992,8.876 28.251,20.203l0.279,2.469l11.105,0l0,-2.777c-0.012,-48.753 -43.431,-88.625 -97.625,-90.583zm91.346,87.807c-2.892,-13.084 -16.738,-22.668 -33.362,-22.668c-14.569,0 -27.013,7.365 -31.809,17.998c-4.796,-10.633 -17.225,-17.998 -31.809,-17.998c-14.573,0 -27.002,7.369 -31.798,17.998c-4.796,-10.629 -17.232,-17.998 -31.809,-17.998c-13.399,0 -24.988,6.227 -30.495,15.489c5.587,-42.263 46.321,-75.17 95.573,-75.17c52.011,0 94.521,36.69 96.171,82.349l-0.662,0z"/>
  </g>
  <g id="svg_3"/>
  <g id="svg_4"/>
  <g id="svg_5"/>
  <g id="svg_6"/>
  <g id="svg_7"/>
  <g id="svg_8"/>
  <g id="svg_9"/>
  <g id="svg_10"/>
  <g id="svg_11"/>
  <g id="svg_12"/>
  <g id="svg_13"/>
  <g id="svg_14"/>
  <g id="svg_15"/>
  <g id="svg_16"/>
  <g id="svg_17"/>
  <path d="m-547.71552,-116.76239c1,1 3.61383,1.297 6,4c2.95966,3.35266 3.54968,7.39625 8,12c6.40784,6.62872 15.75842,12.64323 31,18c22.68155,7.97163 50.95319,11.99951 83,13c39.98053,1.24818 69.49274,5.02305 102,-1c19.5914,-3.62996 38.39923,-14.93159 41,-24c2.75684,-9.61249 -2,-18 -6,-25l-4,-6l-4,-5" id="svg_18" stroke-width="1.5" stroke="#000" fill="none"/>
 </g>
</svg>